<?xml version="1.0" encoding="UTF-8"?>
<svg version="1.1" xmlns="http://www.w3.org/2000/svg" width="605" height="528">
<path d="M0 0 C199.65 0 399.3 0 605 0 C605 174.24 605 348.48 605 528 C405.35 528 205.7 528 0 528 C0 353.76 0 179.52 0 0 Z " fill="#FEFEFC" transform="translate(0,0)"/>
<path d="M0 0 C2.93804996 -0.08086376 5.87388075 -0.1404283 8.8125 -0.1875 C9.64587891 -0.21263672 10.47925781 -0.23777344 11.33789062 -0.26367188 C12.54155273 -0.27817383 12.54155273 -0.27817383 13.76953125 -0.29296875 C14.87711792 -0.31653442 14.87711792 -0.31653442 16.00708008 -0.34057617 C18.6425958 0.10981516 19.38817101 0.88336428 21 3 C22.12817383 5.33959961 22.12817383 5.33959961 23.20703125 8.15234375 C23.62090088 9.21888184 24.03477051 10.28541992 24.46118164 11.38427734 C24.9071167 12.55684082 25.35305176 13.7294043 25.8125 14.9375 C26.29665117 16.19252644 26.78161747 17.4472387 27.26733398 18.70166016 C28.31042145 21.39872771 29.34915463 24.09741631 30.38476562 26.79736328 C31.9793317 30.95145622 33.58891222 35.0996012 35.203125 39.24609375 C35.47510208 39.94475052 35.74707916 40.64340729 36.02729797 41.36323547 C36.58753561 42.80218412 37.14782368 44.24111313 37.7081604 45.68002319 C38.57021761 47.89482814 39.43115673 50.11006453 40.29174805 52.32543945 C45.3839904 65.43266463 50.50164183 78.52991004 55.625 91.625 C56.01462921 92.62126404 56.40425842 93.61752808 56.80569458 94.64398193 C57.92471261 97.50501372 59.04428923 100.36582624 60.1640625 103.2265625 C60.49269791 104.06684998 60.82133331 104.90713745 61.15992737 105.77288818 C61.47533981 106.57825012 61.79075226 107.38361206 62.11572266 108.21337891 C62.42068665 108.99416809 62.72565063 109.77495728 63.03985596 110.57940674 C63.72231539 112.29993683 64.41984817 114.01452136 65.12762451 115.72479248 C65.49462463 116.61531311 65.86162476 117.50583374 66.23974609 118.42333984 C66.57638275 119.22847015 66.91301941 120.03360046 67.25985718 120.86312866 C68 123 68 123 68 126 C68.66 126 69.32 126 70 126 C70.1546875 124.77023437 70.1546875 124.77023437 70.3125 123.515625 C71.12201039 119.37608325 72.48903746 115.67649245 74 111.75 C76.96787 103.87733433 79.77046891 95.95832179 82.5 88 C85.39118131 79.58740623 88.34978311 71.20920619 91.46557617 62.87719727 C93.00258344 58.75410003 94.48810954 54.61864761 95.91796875 50.45703125 C96.23491699 49.53583496 96.55186523 48.61463867 96.87841797 47.66552734 C97.48805552 45.88505427 98.09277874 44.10288874 98.69189453 42.31884766 C98.96501465 41.52140137 99.23813477 40.72395508 99.51953125 39.90234375 C99.75776611 39.19585693 99.99600098 38.48937012 100.24145508 37.76147461 C101 36 101 36 103 34 C103.45951384 37.5612323 102.7153837 39.85956484 101.203125 43.0078125 C98.83529549 48.18966791 97.15481117 53.49324681 95.5 58.9375 C93.59454807 65.18024776 91.54319258 71.26057347 89.06689453 77.30004883 C86.91180518 82.75385504 85.07839393 88.32537466 83.1875 93.875 C82.52421906 95.81168929 81.85995479 97.7480395 81.19563293 99.68437195 C80.75426504 100.97098961 80.31317216 102.25770164 79.87236023 103.54450989 C75.35323122 116.73308865 70.71371431 129.87979979 66 143 C65.01 143 64.02 143 63 143 C62.68474365 142.1742749 62.3694873 141.3485498 62.04467773 140.49780273 C58.03456607 129.99670494 54.01944495 119.49752894 50 109 C49.51551392 107.73467438 49.51551392 107.73467438 49.02124023 106.44378662 C40.09361664 83.00869666 40.09361664 83.00869666 30.875 59.6875 C27.46741294 51.25678432 24.17522729 42.78201805 20.90875244 34.29580688 C20.30645245 32.73277591 19.70242769 31.1704084 19.09661865 29.60873413 C18.24693748 27.41681533 17.40387419 25.22246234 16.5625 23.02734375 C16.17410446 22.03036469 16.17410446 22.03036469 15.77786255 21.01324463 C14.69908418 18.17935175 14 16.06234122 14 13 C13.34 13 12.68 13 12 13 C12.03718888 28.6729722 12.09708206 44.34568316 12.18390274 60.01844978 C12.2236888 67.2958322 12.25608341 74.57310654 12.27099609 81.85058594 C12.28401496 88.19467503 12.31098528 94.53852631 12.35461307 100.88248146 C12.37722304 104.24069544 12.39291099 107.59861615 12.39188385 110.95691299 C12.3942455 114.70878119 12.42126326 118.45971783 12.45410156 122.21142578 C12.4490712 123.32129349 12.44404083 124.43116119 12.43885803 125.57466125 C12.5211188 131.64311199 12.80385191 135.45534384 17 140 C20.10935018 141.42779274 20.10935018 141.42779274 23 142 C23 142.66 23 143.32 23 144 C20.02076997 144.02727678 17.04179621 144.04697128 14.0625 144.0625 C13.23169922 144.07087891 12.40089844 144.07925781 11.54492188 144.08789062 C-4.63981552 144.15086626 -4.63981552 144.15086626 -9.0625 140.3125 C-9.70316406 139.78011719 -10.34382813 139.24773437 -11.00390625 138.69921875 C-11.66261719 138.13847656 -12.32132812 137.57773437 -13 137 C-14.4929028 135.86559873 -15.99272044 134.74022793 -17.5 133.625 C-18.66666667 132.75 -19.83333333 131.875 -21 131 C-22.98 131.99 -22.98 131.99 -25 133 C-24.34 131.35 -23.68 129.7 -23 128 C-23.66644531 127.25878906 -24.33289063 126.51757812 -25.01953125 125.75390625 C-33.52247827 116.10582309 -41.35533152 105.60763932 -47 94 C-48.0415625 94.04640625 -49.083125 94.0928125 -50.15625 94.140625 C-65.02461435 94.59881266 -78.3616466 92.41846474 -91 84 C-91.94552734 83.37544922 -91.94552734 83.37544922 -92.91015625 82.73828125 C-102.60794751 75.3820979 -109.37952595 62.69134577 -112 51 C-112.14925539 47.99081881 -112.1228412 45.00960949 -112 42 C-111.67 42 -111.34 42 -111 42 C-110.84144531 42.89460938 -110.68289062 43.78921875 -110.51953125 44.7109375 C-107.40785825 60.83662408 -100.54362752 72.87885489 -86.80859375 82.30859375 C-77.6843208 87.80346188 -69.11016985 89.17119793 -58.625 89.0625 C-57.79355469 89.05798828 -56.96210938 89.05347656 -56.10546875 89.04882812 C-54.07028103 89.03713164 -52.03513077 89.01919935 -50 89 C-50.144375 88.26136719 -50.28875 87.52273438 -50.4375 86.76171875 C-52.47542034 75.62391801 -53.80641321 64.0690531 -48.25 53.75 C-44.85388929 49.59919802 -41.05566574 46.00976112 -36 44 C-29.38216502 43.34163657 -22.54228108 42.87881663 -17 47 C-14.56694794 49.17694131 -13.23578456 50.76333402 -12.6171875 54.0078125 C-12.06381907 64.59559505 -18.39461785 73.25575886 -25 81 C-29.0046162 84.70224187 -32.89634958 87.08723292 -38 89 C-32.99256133 99.92074564 -26.51294352 110.17627637 -18.99609375 119.546875 C-18 121 -18 121 -18 123 C-14.17053157 121.54744301 -12.87949705 119.57104439 -11 116 C-10.67 116.99 -10.34 117.98 -10 119 C-10.66 119.78375 -11.32 120.5675 -12 121.375 C-14.27929353 123.76699947 -14.27929353 123.76699947 -13.83203125 126.375 C-12.88847353 129.35185815 -11.63765201 131.19461784 -9.6875 133.625 C-9.09324219 134.38039063 -8.49898438 135.13578125 -7.88671875 135.9140625 C-6.0288449 137.96810936 -4.36246519 139.55472718 -2 141 C1.51827355 140.87655181 3.99655627 140.73585873 6.875 138.625 C9.07409348 135.44853163 9.1300142 132.57121696 9.14717102 128.8380127 C9.15432632 127.76962662 9.16148163 126.70124054 9.16885376 125.60047913 C9.17154266 124.4284343 9.17423157 123.25638947 9.17700195 122.04882812 C9.18357315 120.81450546 9.19014435 119.5801828 9.19691467 118.30845642 C9.21665814 114.21605183 9.22831072 110.12368638 9.23828125 106.03125 C9.24232909 104.62252279 9.24644602 103.21379578 9.25063133 101.80506897 C9.26967263 95.19014391 9.28390893 88.57522999 9.2922433 81.9602828 C9.30202852 74.31996409 9.32838556 66.67993411 9.36874419 59.0397172 C9.3988645 53.13562218 9.41370805 47.23161017 9.41702431 41.32743979 C9.41937846 37.79995501 9.42838625 34.27277908 9.45348549 30.74537659 C9.48101014 26.81387987 9.47694762 22.88276644 9.4699707 18.95117188 C9.48278076 17.77912704 9.49559082 16.60708221 9.50878906 15.39952087 C9.50184525 14.3311348 9.49490143 13.26274872 9.48774719 12.1619873 C9.49013555 11.23210747 9.4925239 10.30222763 9.49498463 9.34416962 C9.20143473 6.86363623 9.20143473 6.86363623 7.1726408 5.25159454 C4.54459813 3.73765636 1.90228929 2.85749456 -1 2 C-0.67 1.34 -0.34 0.68 0 0 Z " fill="#0E0E0D" transform="translate(266,187)"/>
<path d="M0 0 C7.92 0 15.84 0 24 0 C22.35 1.98 20.7 3.96 19 6 C17.84133927 8.31732147 17.86947505 9.65322827 17.85955811 12.23294067 C17.85384796 13.12129608 17.84813782 14.00965149 17.84225464 14.92492676 C17.84113678 15.90247925 17.84001892 16.88003174 17.83886719 17.88720703 C17.83390228 18.91518402 17.82893738 19.94316101 17.82382202 21.00228882 C17.80916025 24.42080345 17.80238759 27.83927151 17.796875 31.2578125 C17.79112169 33.63801067 17.78536398 36.01820883 17.77960205 38.39840698 C17.76907716 43.40379045 17.76324594 48.4091578 17.75976562 53.41455078 C17.75431333 59.79151804 17.73036204 66.16826825 17.70179367 72.54516792 C17.68304426 77.47151275 17.67795493 82.39780694 17.67642975 87.32418442 C17.67342444 89.67223151 17.66546872 92.02027817 17.65224457 94.36828995 C17.53799932 116.23532633 18.68497915 139.10622394 33 157 C40.00233262 163.0730107 45.5325891 164.59676276 54.71484375 164.34375 C62.11810688 163.56909226 68.26985043 160.85113101 73.33203125 155.33203125 C80.34945983 145.52077864 83.18673566 136.28451116 83.25 124.375 C83.270625 123.42753906 83.29125 122.48007812 83.3125 121.50390625 C83.36338041 112.20551168 81.33796838 104.55151357 76.5 96.5625 C75.61828125 95.07943359 75.61828125 95.07943359 74.71875 93.56640625 C73.27007492 91.40327095 71.82395055 89.81838972 70 88 C70 87.34 70 86.68 70 86 C68.515 85.505 68.515 85.505 67 85 C67 84.34 67 83.68 67 83 C66.44054687 82.73832031 65.88109375 82.47664063 65.3046875 82.20703125 C62.76247676 80.87560223 60.49190965 79.30980434 58.125 77.6875 C47.89344302 71.15671895 36.96949446 68.33215304 25 67 C25 66.34 25 65.68 25 65 C41.50382088 64.04785649 55.8045055 71.7600597 68.0625 82.125 C76.497239 89.94320286 81.68099428 99.06790771 85 110 C85.33 110.99 85.66 111.98 86 113 C87.40937898 130.27607035 85.63891634 144.27699364 74.41015625 157.93359375 C68.42680462 164.48008435 60.56709828 168.47139331 51.75 169.30859375 C40.18795619 169.70603901 32.0022289 166.90641852 23.25 159.125 C9.87294714 144.70210483 6.89249559 125.08713061 6.81054688 106.18774414 C6.80225357 105.14601044 6.79396027 104.10427673 6.78541565 103.03097534 C6.76811203 100.78519714 6.75291949 98.53940186 6.73963928 96.29359627 C6.71849756 92.74275792 6.69148963 89.19200633 6.66296387 85.64122009 C6.59337043 76.83214686 6.53359139 68.02301243 6.47393799 59.21386719 C6.42307153 51.75013279 6.36830309 44.28644781 6.30812073 36.82278252 C6.2815025 33.31839831 6.26072345 29.81400952 6.2401123 26.30958557 C6.22351839 24.17521947 6.20664736 22.04085549 6.18945312 19.90649414 C6.18526871 18.92729507 6.18108429 17.94809601 6.17677307 16.93922424 C6.16842941 16.04916687 6.16008575 15.1591095 6.15148926 14.24208069 C6.14633553 13.46655885 6.14118179 12.69103701 6.13587189 11.8920145 C6.1146911 9.91105049 6.1146911 9.91105049 5 8 C4.34 8.66 3.68 9.32 3 10 C3.0928125 8.3603125 3.0928125 8.3603125 3.1875 6.6875 C3.39922928 2.72894302 3.39922928 2.72894302 0 0 Z " fill="#060505" transform="translate(374,188)"/>
<path d="M0 0 C3.15625 0.5859375 3.15625 0.5859375 4.63427734 2.20800781 C6.20805636 4.57423459 7.6311696 6.98797565 9.03125 9.4609375 C10.07754232 11.21492513 11.12830172 12.96625605 12.18359375 14.71484375 C12.69003418 15.55934082 13.19647461 16.40383789 13.71826172 17.27392578 C16.47411796 21.70481858 19.74720907 25.64152755 23.15625 29.5859375 C24.1577025 30.79306729 25.15790143 32.00123937 26.15625 33.2109375 C26.81625 33.9946875 27.47625 34.7784375 28.15625 35.5859375 C25.49445383 42.11943718 20.18554699 45.51840044 14.15625 48.5859375 C5.51513761 52.00637782 -4.18127997 53.13288643 -13.03125 50.0234375 C-17.86592759 47.91485537 -21.04098369 45.04347358 -23.84375 40.5859375 C-26.340546 33.09554949 -25.67437868 25.36794738 -22.34375 18.2734375 C-19.3615605 12.92679776 -15.72632567 8.3248468 -10.84375 4.5859375 C-10.18375 4.5859375 -9.52375 4.5859375 -8.84375 4.5859375 C-8.84375 3.5959375 -8.84375 2.6059375 -8.84375 1.5859375 C-5.89670661 1.0245959 -2.93896782 0.60555656 0 0 Z " fill="#F9F9F7" transform="translate(215.84375,279.4140625)"/>
<path d="M0 0 C3.96 0 7.92 0 12 0 C16.90293182 12.2065929 21.75602975 24.4308156 26.52758789 36.68936157 C27.53770911 39.28437515 28.54900433 41.87892882 29.56054688 44.47338867 C32.0692759 50.90857386 34.57612212 57.34449207 37.08300781 63.78039551 C39.21541477 69.25468098 41.34857656 74.72867123 43.48266602 80.20230103 C44.46247139 82.71621193 45.44122986 85.23052854 46.41992188 87.74487305 C47.04025056 89.33647023 47.66069163 90.92802361 48.28125 92.51953125 C48.58011108 93.2872435 48.87897217 94.05495575 49.18688965 94.84593201 C50.84365502 99.08857594 52.52942852 103.31783014 54.24609375 107.53662109 C54.80242493 108.90846809 54.80242493 108.90846809 55.36999512 110.30802917 C56.08785746 112.07446222 56.81008526 113.83912917 57.53723145 115.60176086 C57.85945679 116.39535507 58.18168213 117.18894928 58.51367188 118.0065918 C58.94480286 119.05667671 58.94480286 119.05667671 59.38464355 120.12797546 C60 122 60 122 60 125 C60.66 125 61.32 125 62 125 C62.103125 124.18015625 62.20625 123.3603125 62.3125 122.515625 C63.12201039 118.37608325 64.48903746 114.67649245 66 110.75 C68.96787 102.87733433 71.77046891 94.95832179 74.5 87 C77.39118131 78.58740623 80.34978311 70.20920619 83.46557617 61.87719727 C85.00258344 57.75410003 86.48810954 53.61864761 87.91796875 49.45703125 C88.23491699 48.53583496 88.55186523 47.61463867 88.87841797 46.66552734 C89.48805552 44.88505427 90.09277874 43.10288874 90.69189453 41.31884766 C91.10157471 40.12267822 91.10157471 40.12267822 91.51953125 38.90234375 C91.87688354 37.84261353 91.87688354 37.84261353 92.24145508 36.76147461 C93 35 93 35 95 33 C95.45951384 36.5612323 94.7153837 38.85956484 93.203125 42.0078125 C90.83529549 47.18966791 89.15481117 52.49324681 87.5 57.9375 C85.59454807 64.18024776 83.54319258 70.26057347 81.06689453 76.30004883 C78.91180518 81.75385504 77.07839393 87.32537466 75.1875 92.875 C74.52421906 94.81168929 73.85995479 96.7480395 73.19563293 98.68437195 C72.75426504 99.97098961 72.31317216 101.25770164 71.87236023 102.54450989 C67.35323122 115.73308865 62.71371431 128.87979979 58 142 C57.01 142 56.02 142 55 142 C54.68474365 141.1742749 54.3694873 140.3485498 54.04467773 139.49780273 C50.03456607 128.99670494 46.01944495 118.49752894 42 108 C41.67700928 107.15644958 41.35401855 106.31289917 41.02124023 105.44378662 C32.09331891 82.0088145 32.09331891 82.0088145 22.875 58.6875 C19.47688174 50.27155469 16.17638136 41.81808064 12.90875244 33.35073853 C12.30706345 31.7943042 11.70305012 30.23876625 11.09661865 28.68417358 C10.24537718 26.50024306 9.40290168 24.31312076 8.5625 22.125 C8.30356964 21.46550858 8.04463928 20.80601715 7.77786255 20.12654114 C6.51576446 16.81148321 6 14.6140607 6 11 C5.01 11 4.02 11 3 11 C2.86722656 10.37351563 2.73445313 9.74703125 2.59765625 9.1015625 C2.42105469 8.28429687 2.24445313 7.46703125 2.0625 6.625 C1.80146484 5.40683594 1.80146484 5.40683594 1.53515625 4.1640625 C1.07669307 1.970537 1.07669307 1.970537 0 0 Z " fill="#090808" transform="translate(274,188)"/>
<path d="M0 0 C7.92 0 15.84 0 24 0 C22.35 1.65 20.7 3.3 19 5 C18.07448632 7.77654103 17.86774271 9.46322949 17.84851074 12.33110046 C17.83599525 13.65779503 17.83599525 13.65779503 17.82322693 15.0112915 C17.81904251 15.9791156 17.81485809 16.9469397 17.81054688 17.9440918 C17.80225357 18.96555801 17.79396027 19.98702423 17.78541565 21.03944397 C17.76800325 23.26075877 17.7528397 25.48209207 17.73963928 27.7034359 C17.71861483 31.22183898 17.69158855 34.74015023 17.66296387 38.25849915 C17.60323137 45.73479735 17.55113823 53.21113874 17.5 60.6875 C17.44070691 69.33387677 17.37827837 77.98020891 17.30812073 86.6265049 C17.28162762 90.08738904 17.26075929 93.54827781 17.2401123 97.00920105 C17.22349845 99.14244802 17.20662567 101.275693 17.18945312 103.40893555 C17.18526871 104.36663849 17.18108429 105.32434143 17.17677307 106.31106567 C17.12742175 111.62590789 16.76929053 116.7395504 16 122 C12.29655972 120.76551991 10.69749018 118.76665659 8 116 C7.34 115.67 6.68 115.34 6 115 C6.00999275 113.02802139 6.00999275 113.02802139 6.02018738 111.01620483 C6.08100135 98.62710547 6.12597412 86.2380364 6.15543652 73.84882164 C6.17109261 67.47939203 6.1923302 61.11008292 6.22631836 54.74072266 C6.25891329 48.59398845 6.27685344 42.44737015 6.28463173 36.30055618 C6.29017495 33.95540162 6.30099944 31.61025339 6.31719017 29.26514816 C6.33896575 25.98049965 6.34196681 22.69633017 6.34057617 19.41162109 C6.351362 18.44201447 6.36214783 17.47240784 6.3732605 16.47341919 C6.34077229 9.38218372 5.16158088 5.16158088 0 0 Z " fill="#050404" transform="translate(240,115)"/>
<path d="M0 0 C1.8871875 -0.00386719 1.8871875 -0.00386719 3.8125 -0.0078125 C7 0.125 7 0.125 9 1.125 C8.15811265 13.96378201 3.45337754 26.60241693 -6.375 35.25 C-7.57180888 36.22268737 -8.77597676 37.18678929 -10 38.125 C-15.11065772 33.88759192 -15.67777161 26.4117296 -16.29296875 20.13671875 C-16.49557064 13.16142512 -15.63084721 8.15446042 -10.9375 2.75 C-7.31150951 -0.29115331 -4.67414877 -0.00957817 0 0 Z " fill="#FAFAF7" transform="translate(236,232.875)"/>
<path d="M0 0 C5.94 0 11.88 0 18 0 C18 0.33 18 0.66 18 1 C15.36 1.33 12.72 1.66 10 2 C10.33 5.3 10.66 8.6 11 12 C11.99 12.33 12.98 12.66 14 13 C13.34 13 12.68 13 12 13 C12.03718888 28.6729722 12.09708206 44.34568316 12.18390274 60.01844978 C12.2236888 67.2958322 12.25608341 74.57310654 12.27099609 81.85058594 C12.28401496 88.19467503 12.31098528 94.53852631 12.35461307 100.88248146 C12.37722304 104.24069544 12.39291099 107.59861615 12.39188385 110.95691299 C12.3942455 114.70878119 12.42126326 118.45971783 12.45410156 122.21142578 C12.4490712 123.32129349 12.44404083 124.43116119 12.43885803 125.57466125 C12.5211188 131.64311199 12.80385191 135.45534384 17 140 C20.10935018 141.42779274 20.10935018 141.42779274 23 142 C23 142.66 23 143.32 23 144 C20.02076997 144.02727678 17.04179621 144.04697128 14.0625 144.0625 C13.23169922 144.07087891 12.40089844 144.07925781 11.54492188 144.08789062 C-3.29888537 144.14564863 -3.29888537 144.14564863 -8.0625 140.9375 C-9.0215625 139.9784375 -9.0215625 139.9784375 -10 139 C-9.34 139 -8.68 139 -8 139 C-7.505 138.01 -7.505 138.01 -7 137 C-6.319375 137.680625 -5.63875 138.36125 -4.9375 139.0625 C-2.08198308 141.34281077 -2.08198308 141.34281077 1.625 140.9375 C5.49370052 139.86725365 5.49370052 139.86725365 8 137 C9.00221773 133.99334682 9.1327282 131.98066997 9.14717102 128.8380127 C9.15432632 127.76962662 9.16148163 126.70124054 9.16885376 125.60047913 C9.17154266 124.4284343 9.17423157 123.25638947 9.17700195 122.04882812 C9.18357315 120.81450546 9.19014435 119.5801828 9.19691467 118.30845642 C9.21665814 114.21605183 9.22831072 110.12368638 9.23828125 106.03125 C9.24232909 104.62252279 9.24644602 103.21379578 9.25063133 101.80506897 C9.26967263 95.19014391 9.28390893 88.57522999 9.2922433 81.9602828 C9.30202852 74.31996409 9.32838556 66.67993411 9.36874419 59.0397172 C9.3988645 53.13562218 9.41370805 47.23161017 9.41702431 41.32743979 C9.41937846 37.79995501 9.42838625 34.27277908 9.45348549 30.74537659 C9.48101014 26.81387987 9.47694762 22.88276644 9.4699707 18.95117188 C9.48278076 17.77912704 9.49559082 16.60708221 9.50878906 15.39952087 C9.50184525 14.3311348 9.49490143 13.26274872 9.48774719 12.1619873 C9.49013555 11.23210747 9.4925239 10.30222763 9.49498463 9.34416962 C9.20143473 6.86363623 9.20143473 6.86363623 7.1726408 5.25159454 C4.54459813 3.73765636 1.90228929 2.85749456 -1 2 C-0.67 1.34 -0.34 0.68 0 0 Z " fill="#1C1B15" transform="translate(266,187)"/>
<path d="M0 0 C0.99 0.33 1.98 0.66 3 1 C2.60167969 1.47308594 2.20335937 1.94617188 1.79296875 2.43359375 C-3.58073931 9.14092278 -6.67708741 15.87191315 -6.35546875 24.6015625 C-5.37235564 31.23487511 -2.96191929 38.33880309 2 43 C5.821255 45.06554325 9.71719248 45.49614029 14 46 C8.84298163 48.89070537 4.07439662 48.77206652 -1.59765625 47.34765625 C-7.59127414 45.24130185 -11.59524433 42.41494352 -15 37 C-17.496796 29.50961199 -16.83062868 21.78200988 -13.5 14.6875 C-10.30126857 8.94501548 -6.02030958 3.01015479 0 0 Z " fill="#0C0B0A" transform="translate(207,283)"/>
<path d="M0 0 C16.50382088 -0.95214351 30.8045055 6.7600597 43.0625 17.125 C51.497239 24.94320286 56.68099428 34.06790771 60 45 C60.33 45.99 60.66 46.98 61 48 C62.40937898 65.27607035 60.63891634 79.27699364 49.41015625 92.93359375 C43.38131086 99.52985988 35.35097791 103.75044246 26.3984375 104.16796875 C25.05732848 104.17984865 23.71616102 104.18621536 22.375 104.1875 C21.694375 104.19974609 21.01375 104.21199219 20.3125 104.22460938 C18.54009244 104.22986355 16.7682006 104.12215906 15 104 C14.34 103.34 13.68 102.68 13 102 C18.28 102 23.56 102 29 102 C24.71 101.34 20.42 100.68 16 100 C16.33 99.34 16.66 98.68 17 98 C18.485 98.495 18.485 98.495 20 99 C29.31803683 99.7971953 37.12173466 99.06589956 44.92578125 93.66796875 C51.63047404 87.79578771 57.53536677 76.67523069 58.16113281 67.68505859 C58.20699082 64.91491483 58.23528291 62.14549168 58.25 59.375 C58.270625 58.42753906 58.29125 57.48007812 58.3125 56.50390625 C58.36338041 47.20551168 56.33796838 39.55151357 51.5 31.5625 C50.61828125 30.07943359 50.61828125 30.07943359 49.71875 28.56640625 C48.27007492 26.40327095 46.82395055 24.81838972 45 23 C45 22.34 45 21.68 45 21 C44.01 20.67 43.02 20.34 42 20 C42 19.34 42 18.68 42 18 C41.16082031 17.60748047 41.16082031 17.60748047 40.3046875 17.20703125 C37.76247676 15.87560223 35.49190965 14.30980434 33.125 12.6875 C22.89344302 6.15671895 11.96949446 3.33215304 0 2 C0 1.34 0 0.68 0 0 Z " fill="#2B2A26" transform="translate(399,253)"/>
<path d="M0 0 C0.33 0 0.66 0 1 0 C1.15855469 0.89460937 1.31710938 1.78921875 1.48046875 2.7109375 C4.59214175 18.83662408 11.45637248 30.87885489 25.19140625 40.30859375 C34.13382208 45.69394292 42.58690166 47.17584346 52.875 47.0625 C53.65875 47.05798828 54.4425 47.05347656 55.25 47.04882812 C57.16670014 47.03714093 59.08336048 47.01920908 61 47 C57.74774526 49.16816982 56.36574864 49.31995904 52.5625 49.5625 C48.74152839 49.78186583 48.74152839 49.78186583 45.03515625 50.625 C37.59522436 51.99588956 28.42447538 46.47371593 22.31640625 42.66015625 C16.89074725 38.77161481 13.09049012 35.17660154 9.3125 29.625 C8.56613281 28.54476563 7.81976563 27.46453125 7.05078125 26.3515625 C1.93685527 17.99394633 -0.39919046 9.78016638 0 0 Z " fill="#1C1B17" transform="translate(154,229)"/>
<path d="M0 0 C0.33 0 0.66 0 1 0 C1.45951384 3.5612323 0.7153837 5.85956484 -0.796875 9.0078125 C-3.16470451 14.18966791 -4.84518883 19.49324681 -6.5 24.9375 C-8.40545193 31.18024776 -10.45680742 37.26057347 -12.93310547 43.30004883 C-15.08820072 48.75386998 -16.92135622 54.32544591 -18.8125 59.875 C-19.25158715 61.15556174 -19.69104429 62.43599668 -20.13085938 63.71630859 C-21.79379235 68.55791285 -23.45246992 73.40097148 -25.11083984 78.24414062 C-26.06976112 81.03920673 -27.0340786 83.83234691 -28 86.625 C-28.2781958 87.44081543 -28.5563916 88.25663086 -28.84301758 89.09716797 C-29.97899954 92.37211564 -31.06672625 95.10008937 -33 98 C-33 96.35 -33 94.7 -33 93 C-33.66 93 -34.32 93 -35 93 C-34.67 91.68 -34.34 90.36 -34 89 C-34 89.99 -34 90.98 -34 92 C-33.34 92 -32.68 92 -32 92 C-31.896875 91.18015625 -31.79375 90.3603125 -31.6875 89.515625 C-30.87798961 85.37608325 -29.51096254 81.67649245 -28 77.75 C-25.03213 69.87733433 -22.22953109 61.95832179 -19.5 54 C-16.6088675 45.58754823 -13.64517987 37.21164708 -10.53662109 28.87719727 C-7.99985865 22.05825497 -5.5961443 15.19532347 -3.22021484 8.31884766 C-2.94387207 7.52140137 -2.6675293 6.72395508 -2.3828125 5.90234375 C-2.13934082 5.19585693 -1.89586914 4.48937012 -1.64501953 3.76147461 C-1 2 -1 2 0 0 Z " fill="#373631" transform="translate(368,221)"/>
<path d="M0 0 C5.94 0 11.88 0 18 0 C18 0.33 18 0.66 18 1 C15.36 1.33 12.72 1.66 10 2 C10.16251975 2.5514204 10.3250395 3.10284081 10.49248409 3.67097092 C11.05907814 6.27111406 11.12290547 8.60290732 11.12025452 11.26446533 C11.12162918 12.3301474 11.12300385 13.39582947 11.12442017 14.49380493 C11.12082489 15.65761688 11.11722961 16.82142883 11.11352539 18.02050781 C11.11367142 19.25004181 11.11381744 20.47957581 11.1139679 21.74636841 C11.11339078 25.11381682 11.1083769 28.48120385 11.10139394 31.8486414 C11.09514092 35.3693683 11.09455506 38.89009603 11.09336853 42.41082764 C11.09026097 49.07598735 11.08205531 55.74113065 11.07201904 62.40628314 C11.06084007 69.99510469 11.05534295 77.58392703 11.05032361 85.17275476 C11.03987223 100.78184601 11.0222839 116.39092089 11 132 C10.67 132 10.34 132 10 132 C9.99853344 131.35854884 9.99706688 130.71709768 9.99555588 130.05620861 C9.9585256 114.45782603 9.89956157 98.85970462 9.81609726 83.26150799 C9.77626522 75.71836166 9.74389401 68.17532028 9.72900391 60.63208008 C9.71600883 54.0583949 9.68909955 47.48494025 9.64538693 40.91138488 C9.6227233 37.42974859 9.60709221 33.94839713 9.60811615 30.46668053 C9.60899797 26.58261022 9.57881888 22.69912396 9.54589844 18.81518555 C9.5509288 17.65712906 9.55595917 16.49907257 9.56114197 15.30592346 C9.54722916 14.25003021 9.53331635 13.19413696 9.51898193 12.10624695 C9.51529476 11.18721934 9.51160759 10.26819174 9.50780869 9.32131481 C9.19652737 6.86173997 9.19652737 6.86173997 7.17068863 5.25507832 C4.5440602 3.73637851 1.9032718 2.85778485 -1 2 C-0.67 1.34 -0.34 0.68 0 0 Z " fill="#605E57" transform="translate(266,187)"/>
<path d="M0 0 C16.50382088 -0.95214351 30.8045055 6.7600597 43.0625 17.125 C52.37478768 25.75660724 60.18818651 38.01098422 61 51 C60.77444543 54.68064046 60.42363219 58.33721095 60 62 C59.67 62 59.34 62 59 62 C58.94392578 60.65808594 58.94392578 60.65808594 58.88671875 59.2890625 C58.1382368 45.52286507 55.10899688 33.07817677 45 23 C45 22.34 45 21.68 45 21 C44.01 20.67 43.02 20.34 42 20 C42 19.34 42 18.68 42 18 C41.16082031 17.60748047 41.16082031 17.60748047 40.3046875 17.20703125 C37.76247676 15.87560223 35.49190965 14.30980434 33.125 12.6875 C22.89344302 6.15671895 11.96949446 3.33215304 0 2 C0 1.34 0 0.68 0 0 Z " fill="#2E2D28" transform="translate(399,253)"/>
<path d="M0 0 C2.07179079 3.10768619 2.24907628 3.7541877 2.24050903 7.27104187 C2.24325836 8.14182373 2.24600769 9.01260559 2.24884033 9.90977478 C2.24164978 10.86211502 2.23445923 11.81445526 2.22705078 12.7956543 C2.22734283 13.80071014 2.22763489 14.80576599 2.22793579 15.84127808 C2.22654055 19.16901227 2.21097005 22.49652359 2.1953125 25.82421875 C2.19158307 28.12921527 2.18873577 30.43421337 2.18673706 32.73921204 C2.17909514 38.81047938 2.1594418 44.88165127 2.1373291 50.95288086 C2.11688273 57.14630848 2.10773793 63.3397515 2.09765625 69.53320312 C2.07619649 81.68884406 2.04205376 93.8444141 2 106 C1.67 106 1.34 106 1 106 C0.67 72.67 0.34 39.34 0 5 C-0.66 5 -1.32 5 -2 5 C-2.11472656 5.50273437 -2.22945313 6.00546875 -2.34765625 6.5234375 C-3.24598384 9.93385484 -4.33715285 13.27583842 -5.4375 16.625 C-5.76331055 17.6459375 -5.76331055 17.6459375 -6.09570312 18.6875 C-7.7671783 23.7671783 -7.7671783 23.7671783 -10 26 C-9.2882316 22.06692924 -8.24418964 18.31708051 -7.0625 14.5 C-6.72347656 13.3965625 -6.38445312 12.293125 -6.03515625 11.15625 C-5.12545778 8.38252787 -4.12084268 5.69404339 -3 3 C-2.34 3 -1.68 3 -1 3 C-0.67 2.01 -0.34 1.02 0 0 Z " fill="#C4C3C2" transform="translate(379,195)"/>
<path d="M0 0 C10.08343996 7.13218924 14.67733417 18.42400309 17.8125 30 C18.10668258 34.70692128 17.54079962 39.3241633 17 44 C16.67 44 16.34 44 16 44 C15.96261719 43.10539062 15.92523438 42.21078125 15.88671875 41.2890625 C15.1382368 27.52286507 12.10899688 15.07817677 2 5 C2 4.34 2 3.68 2 3 C1.01 2.67 0.02 2.34 -1 2 C-0.67 1.34 -0.34 0.68 0 0 Z " fill="#3A3934" transform="translate(442,271)"/>
<path d="M0 0 C2.32891212 3.49336818 2.23551143 4.86007865 2.1953125 8.98046875 C2.18564453 10.72553711 2.18564453 10.72553711 2.17578125 12.50585938 C2.15902344 13.72080078 2.14226562 14.93574219 2.125 16.1875 C2.11597656 17.41404297 2.10695313 18.64058594 2.09765625 19.90429688 C2.07406017 22.93639295 2.04113841 25.96809938 2 29 C1.67 29 1.34 29 1 29 C0.67 21.08 0.34 13.16 0 5 C-0.66 5 -1.32 5 -2 5 C-2.11472656 5.50273437 -2.22945313 6.00546875 -2.34765625 6.5234375 C-3.24598384 9.93385484 -4.33715285 13.27583842 -5.4375 16.625 C-5.76331055 17.6459375 -5.76331055 17.6459375 -6.09570312 18.6875 C-7.7671783 23.7671783 -7.7671783 23.7671783 -10 26 C-9.2882316 22.06692924 -8.24418964 18.31708051 -7.0625 14.5 C-6.72347656 13.3965625 -6.38445312 12.293125 -6.03515625 11.15625 C-5.12545778 8.38252787 -4.12084268 5.69404339 -3 3 C-2.34 3 -1.68 3 -1 3 C-0.67 2.01 -0.34 1.02 0 0 Z " fill="#878780" transform="translate(379,195)"/>
<path d="M0 0 C0.99 0.33 1.98 0.66 3 1 C2.59007812 1.51949219 2.18015625 2.03898437 1.7578125 2.57421875 C-1.07636576 6.2423777 -3.59828033 9.51449706 -5 14 C-5.66 12.68 -6.32 11.36 -7 10 C-8.32 11.65 -9.64 13.3 -11 15 C-11.66 14.67 -12.32 14.34 -13 14 C-5.50807899 3.18748397 -5.50807899 3.18748397 0 0 Z " fill="#11100F" transform="translate(207,283)"/>
<path d="M0 0 C0 0.99 0 1.98 0 3 C-0.69150146 3.02505615 -1.38300293 3.0501123 -2.09545898 3.07592773 C-5.20967866 3.19152161 -8.32356789 3.31441242 -11.4375 3.4375 C-13.07041992 3.49647461 -13.07041992 3.49647461 -14.73632812 3.55664062 C-16.28803711 3.61948242 -16.28803711 3.61948242 -17.87109375 3.68359375 C-18.82943115 3.72025146 -19.78776855 3.75690918 -20.77514648 3.79467773 C-22.97138925 3.75834424 -22.97138925 3.75834424 -24 5 C-25.66617115 5.04063832 -27.33388095 5.042721 -29 5 C-21.40718512 -1.52088807 -9.43160685 -0.27382084 0 0 Z " fill="#75736D" transform="translate(218,172)"/>
<path d="M0 0 C0.33 0 0.66 0 1 0 C1.15855469 0.89460937 1.31710938 1.78921875 1.48046875 2.7109375 C3.2411927 11.83557321 5.47175091 19.63611296 11.375 26.9375 C11.91125 27.618125 12.4475 28.29875 13 29 C12.67 29.99 12.34 30.98 12 32 C5.69485803 26.28170025 1.56813474 17.31111412 0 9 C-0.13589837 5.99082184 -0.12282397 3.00918719 0 0 Z " fill="#2C2A26" transform="translate(154,229)"/>
<path d="M0 0 C5.13669226 0.06257322 8.51787744 0.4104731 12.75 3.3125 C12.09 3.9725 11.43 4.6325 10.75 5.3125 C10.39984951 6.97571482 10.06802943 8.64284549 9.75 10.3125 C8.6875 12.625 8.6875 12.625 7.75 14.3125 C5.98984426 10.79218852 7.85190791 7.01052625 8.75 3.3125 C3.14 2.9825 -2.47 2.6525 -8.25 2.3125 C-5.50090732 -0.43659268 -3.83354488 0.01312858 0 0 Z " fill="#464540" transform="translate(236.25,230.6875)"/>
<path d="M0 0 C-0.83144531 0.47050781 -1.66289062 0.94101563 -2.51953125 1.42578125 C-3.60621094 2.04839844 -4.69289062 2.67101562 -5.8125 3.3125 C-6.89144531 3.92738281 -7.97039062 4.54226562 -9.08203125 5.17578125 C-11.4693635 6.66826339 -13.06944521 8.02072459 -15 10 C-15.66 10 -16.32 10 -17 10 C-17 10.66 -17 11.32 -17 12 C-18.375 13.625 -18.375 13.625 -20 15 C-20.66 15 -21.32 15 -22 15 C-18.82789241 7.71531072 -11.6628244 3.534697 -4.98046875 -0.25 C-3 -1 -3 -1 0 0 Z " fill="#36342E" transform="translate(189,178)"/>
<path d="M0 0 C0.33 0 0.66 0 1 0 C1 6.27 1 12.54 1 19 C0.01 18.34 -0.98 17.68 -2 17 C-2.52299149 11.03789706 -1.49355828 5.76086765 0 0 Z " fill="#9F9D96" transform="translate(155,215)"/>
<path d="M0 0 C0.66 0 1.32 0 2 0 C0.8881121 3.23458297 -0.55780571 5.91913511 -2.4375 8.75 C-5.13809822 12.93672623 -6.64173009 17.22949104 -8 22 C-8.33 22 -8.66 22 -9 22 C-9.32721885 17.12807491 -8.4487533 14.17743329 -6.1875 9.875 C-5.66542969 8.86179688 -5.14335937 7.84859375 -4.60546875 6.8046875 C-3.20286572 4.35439802 -1.85635587 2.12590891 0 0 Z " fill="#45453D" transform="translate(165,193)"/>
<path d="M0 0 C0.99 0.33 1.98 0.66 3 1 C1.8553125 1.2165625 1.8553125 1.2165625 0.6875 1.4375 C-3.04787745 3.60923108 -3.37092715 6.0782752 -4.51953125 10.1015625 C-4.67808594 10.72804687 -4.83664063 11.35453125 -5 12 C-5.33 11.01 -5.66 10.02 -6 9 C-6.66 9 -7.32 9 -8 9 C-6.40758592 4.70048197 -3.64459275 2.60328053 0 0 Z " fill="#242420" transform="translate(226,233)"/>
<path d="M0 0 C0.33 0 0.66 0 1 0 C1.20496094 0.97582031 1.40992188 1.95164063 1.62109375 2.95703125 C1.89050781 4.22933594 2.15992188 5.50164062 2.4375 6.8125 C2.70433594 8.07707031 2.97117188 9.34164062 3.24609375 10.64453125 C3.93427886 13.97045413 3.93427886 13.97045413 5 17 C4.34 17.66 3.68 18.32 3 19 C0.6969113 12.43345544 -0.33693273 6.96327638 0 0 Z " fill="#3F3C36" transform="translate(154,229)"/>
<path d="M0 0 C0.86625 0.66 1.7325 1.32 2.625 2 C6.21423463 4.12695385 7.92694798 4.38790972 12 4 C11.67 4.66 11.34 5.32 11 6 C3.73846154 6.49230769 3.73846154 6.49230769 0 4 C-0.66 3.34 -1.32 2.68 -2 2 C-1.34 2 -0.68 2 0 2 C0 1.34 0 0.68 0 0 Z " fill="#282722" transform="translate(258,324)"/>
<path d="M0 0 C3.72114571 2.31537955 6.61229661 4.28579473 9 8 C7.68 8.33 6.36 8.66 5 9 C4.38125 8.21625 3.7625 7.4325 3.125 6.625 C1.10141339 4.03162353 1.10141339 4.03162353 -1 2 C-0.67 1.34 -0.34 0.68 0 0 Z " fill="#DFDEDE" transform="translate(247,230)"/>
<path d="M0 0 C0.33 0 0.66 0 1 0 C1.68041782 5.27323808 -0.75213663 9.39388711 -3 14 C-3.66 13.67 -4.32 13.34 -5 13 C-3.35 8.71 -1.7 4.42 0 0 Z " fill="#44443D" transform="translate(368,221)"/>
<path d="M0 0 C0.99 0.33 1.98 0.66 3 1 C1.35 2.65 -0.3 4.3 -2 6 C-2.99 5.34 -3.98 4.68 -5 4 C-2.6875 1.9375 -2.6875 1.9375 0 0 Z " fill="#21211E" transform="translate(207,283)"/>
<path d="M0 0 C2.31 0 4.62 0 7 0 C6.34 0.66 5.68 1.32 5 2 C5.185625 2.804375 5.37125 3.60875 5.5625 4.4375 C5.706875 5.283125 5.85125 6.12875 6 7 C4.5625 8.8125 4.5625 8.8125 3 10 C3.0928125 8.3603125 3.0928125 8.3603125 3.1875 6.6875 C3.35597914 3.07873917 3.35597914 3.07873917 1.5 1.0625 C1.005 0.711875 0.51 0.36125 0 0 Z " fill="#2A2A24" transform="translate(374,188)"/>
<path d="M0 0 C-1 3 -1 3 -3.3125 4.3125 C-6 5 -6 5 -8.3125 4.125 C-8.869375 3.75375 -9.42625 3.3825 -10 3 C-8.70990357 2.49596232 -7.41786211 1.99690074 -6.125 1.5 C-5.04605469 1.08234375 -5.04605469 1.08234375 -3.9453125 0.65625 C-2 0 -2 0 0 0 Z " fill="#1D1C18" transform="translate(442,349)"/>
<path d="M0 0 C0.99 0.33 1.98 0.66 3 1 C1.02 1.99 1.02 1.99 -1 3 C-1 3.66 -1 4.32 -1 5 C-2.375 6.625 -2.375 6.625 -4 8 C-4.66 8 -5.32 8 -6 8 C-4.55746343 4.63408134 -2.66735273 2.48952921 0 0 Z " fill="#3C3B35" transform="translate(173,185)"/>
</svg>
